<svg xmlns="http://www.w3.org/2000/svg" width="18.504" height="26.447" viewBox="0 0 18.504 26.447">
  <g id="User" transform="translate(0 -0.134)">
    <ellipse id="Ellipse_6" data-name="Ellipse 6" cx="5" cy="5.5" rx="5" ry="5.5" transform="translate(3.996 0.134)" fill="#fff"/>
    <path id="Intersection_1" data-name="Intersection 1" d="M.313,12.761A9.233,9.233,0,0,1,0,10.373V8.136A9.25,9.25,0,0,1,4.648.109,6.315,6.315,0,0,0,9.1,1.934,6.3,6.3,0,0,0,13.662,0,9.253,9.253,0,0,1,18.5,8.136v2.236a9.223,9.223,0,0,1-.4,2.691,14.5,14.5,0,0,1-17.792-.3Z" transform="translate(0 10.617)" fill="#fff"/>
  </g>
</svg>
